<?xml version="1.0"?>
<svg xmlns="http://www.w3.org/2000/svg" id="Layer_1_1_" height="512" viewBox="0 0 256 256" width="512">
  <path d="m107.959 154.516-6.481-7.201-15.243-16.936-1.603-1.781c-2.324-2.583-5.464-4.291-8.895-4.84l-15.176-2.428c-2.949-.472-5.971-.064-8.689 1.171-4.306 1.957-7.456 5.808-8.519 10.418-.864 3.743-.864 7.633 0 11.376 1.083 4.693 3.934 8.788 7.959 11.433l24.252 15.937c2.918 1.917 5.445 4.368 7.461 7.218z" fill="#7f8b4b"/>
  <path d="m102.932 148.931-1.454-1.616-14.351-15.945-31.85-2.056c-4.778-.473-9.256 2.688-10.559 7.453-1.744 6.377 2.875 12.577 9.314 12.502z" fill="#727d43"/>
  <path d="m77.995 169.403-26.046-17.116c-4.323-2.841-7.384-7.239-8.548-12.279-.283-1.228-.469-2.471-.58-3.719-.246 2.674-.075 5.376.532 8.006 1.083 4.693 3.934 8.788 7.959 11.433l24.252 15.937c2.918 1.917 5.445 4.368 7.461 7.218l2.458-2.402c-2.077-2.767-4.593-5.176-7.488-7.078z" fill="#727d43"/>
  <path d="m107.959 154.516-24.933 24.367c.027.039.059.073.086.112l10.928 15.688 22.936-29.879z" fill="#f5d3a6"/>
  <path d="m108.527 155.147-.568-.631-24.933 24.367c.027.039.059.073.086.112l10.928 15.688 2.185-2.926-6.213-8.804c-2.33-3.302-1.921-7.807.967-10.634 6.645-6.506 17.548-17.172 17.548-17.172z" fill="#f0c792"/>
  <path d="m52.5 117.167-2.374-5.935-14.108 1.9 9.284 15.297 15.573-6.774z" fill="#f0c792"/>
  <path d="m164.956 119.414-30.669 28.073-17.311 17.316-22.936 29.879 2.928 3.53c4.416 5.588 11.016 9.014 18.127 9.409l2.861.159c2.621.146 5.248-.125 7.784-.801h.001c21.759-5.479 52.259-71.979 52.259-71.979l13.018-5.208-10.754-20.164z" fill="#514654"/>
  <path d="m251.628 50.111c1.096-2.973 1.28-6.206.53-9.284l-.643-2.638c-.434-1.781-2.158-2.934-3.97-2.656-1.78.273-3.07 1.841-2.994 3.64l.08 1.91c.131 3.143-.671 6.255-2.305 8.944l-10.738 17.662-47.068 39.221-4.254 2.719 10.754 20.164 1.04-.416c6.849-2.74 12.889-7.177 17.551-12.895l3.875-4.753 23.549-32.237 6.991-1.537c2.781-.612 4.621-3.263 4.22-6.083l-.944-6.633c-.228-1.601-.054-3.234.505-4.751z" fill="#f5d3a6"/>
  <path d="m24.666 108.592c-2.505-2.463-4.65-5.329-6.293-7.828-4.088-6.22-3.857-16.665.525-22.686 3.794-5.213 10.57-8.386 16.87-8.77 4.031-.246 9.047 1.892 11.666 4.991.496.587 1.023 1.277 1.561 2.022-.013.007-19.423 11.45-24.329 32.271z" fill="#704c0f"/>
  <path d="m24.666 108.592c4.906-20.821 24.317-32.264 24.328-32.271 3.084 4.28 6.512 10.46 6.512 10.46l5.571 4.922-3.828 4.333s3.384 7.398 1.815 10.421c-3.137 6.046-12.413 7.6-14.766 8.014-3.047.536-6.353.238-9.411-.14-3.77-.466-7.25-2.817-10.221-5.739z" fill="#f5d3a6"/>
  <path d="m18.595 78.54c-3.032 4.522-3.888 11.249-2.481 16.902-3.149 1.147-6.774.08-9.498-2.258-4.018-3.448-4.48-9.501-1.032-13.52 3.294-3.838 9.013-4.121 13.017-1.161z" fill="#704c0f"/>
  <g fill="#5e400d">
    <path d="m6.615 93.185c-.564-.484-1.05-1.023-1.473-1.597.076.038.153.075.229.111 3.498 1.65 7.455-.955 7.554-4.822.088-3.458.746-6.943 1.934-10.095 1.322.31 2.601.88 3.74 1.722l-.005.037c-3.032 4.522-3.888 11.249-2.481 16.902-3.149 1.147-6.773.08-9.498-2.258z"/>
    <path d="m30.85 75.517c-5.328-.199-11.488 4.634-14.208 7.035.18-.527.379-1.041.599-1.54 3.135-2.607 8.634-6.449 13.638-6.263 5.086.19 9.862 3.543 12.425 5.698-.201.165-.403.333-.61.508-2.521-2.088-7.103-5.262-11.844-5.438z"/>
    <path d="m29.028 84.19c-5.13.257-11.085 2.743-13.498 3.844.023-.298.057-.594.091-.89 2.672-1.199 8.329-3.469 13.368-3.721 3.61-.181 6.697.95 8.842 2.081-.186.193-.373.392-.56.591-2.053-1.05-4.942-2.071-8.243-1.905z"/>
    <path d="m15.738 93.519c-.072-.462-.131-.927-.175-1.396 1.27 1.581 3.329 3.583 6.676 5.876 1.767 1.211 3.414 2.238 4.929 3.121-.103.235-.198.477-.298.715-1.556-.903-3.249-1.957-5.066-3.202-2.801-1.92-4.731-3.646-6.066-5.114z"/>
  </g>
  <path d="m183.241 115.21-2.977-5.582-15.308 9.785-30.669 28.073-1.219 1.219 21.597-17.063c3.517-2.779 7.579-4.789 11.921-5.9 6.634-1.697 12.411-5.445 16.655-10.532z" fill="#403742"/>
  <path d="m184.518 106.909-4.254 2.719 2.977 5.582c2.874-3.445 5.051-7.499 6.287-11.968l.183-.66z" fill="#f0c792"/>
  <path d="m183.324 103.819c-1.609-2.313-4.451-3.435-7.206-2.844l-9.451 2.025 3.001-5.772c.756-1.454.286-3.244-1.086-4.139-1.44-.94-3.366-.568-4.352.84l-10.563 15.071-20.333 6.667-11.962 1.709c-6.003.857-11.877 2.452-17.489 4.748l-20.883 8.543h-26.797c-3.254 0-6.296 1.614-8.121 4.308-2.424 3.578-2.22 8.322.502 11.679 3.36 4.145 8.648 6.223 13.931 5.476l24.485-3.463 53.667-21.014 14.333-7.26 20.972-2.062c2.124-.209 4.036-1.376 5.192-3.169l2.295-3.557c1.538-2.383 1.484-5.458-.135-7.786z" fill="#f5d3a6"/>
  <path d="m126.742 202.264h-.001c-2.536.676-5.164.947-7.784.801l-2.861-.159c-7.111-.395-13.711-3.821-18.127-9.409l-1.568-1.89-2.36 3.074 2.928 3.53c4.416 5.588 11.016 9.014 18.127 9.409l2.861.159c2.621.146 5.248-.125 7.784-.801h.001c7.552-1.902 16.157-11.157 24.175-22.429-8.198 8.956-16.453 16.023-23.175 17.715z" fill="#403742"/>
</svg>
