<?xml version="1.0"?>
<svg xmlns="http://www.w3.org/2000/svg" id="Layer_1_1_" height="512" viewBox="0 0 256 256" width="512">
  <path d="m153.645 58.731-6.521-1.237c-2.252-.427-4.383-1.347-6.196-2.702-3.213 1.443-7.5 2.332-12.225 2.332-4.756 0-9.068-.9-12.288-2.359-2.065 1.253-4.454 1.957-6.906 2.051l-9.176.353 7.406 31.758.633 10.003h38.612l-.142-19.511z" fill="#727d43"/>
  <path d="m140.928 54.791c-.869-.65-1.671-1.391-2.367-2.241-.015-.018-.03-.036-.044-.054l-3.15-3.885h-13.521l-2.636 3.896c-.017.018-.034.036-.05.054-.813.869-1.744 1.595-2.745 2.203 3.219 1.459 7.532 2.359 12.288 2.359 4.725 0 9.012-.889 12.225-2.332z" fill="#deb887"/>
  <path d="m109.964 204.464-4.667 5.202c-2.091 2.114-3.142 5.042-2.873 8.003l.423 4.658c.095 1.04.72 1.957 1.655 2.424 1.409.705 3.124.205 3.934-1.146l4.742-8.213z" fill="#f0c792"/>
  <path d="m122 185 2.429-16.536-8.954-10.286-3.269 3.358-5.866 10.525c-2.174 3.865-3.103 8.305-2.662 12.718l.091.91c.154 1.536.472 3.051.949 4.519l.679 2.187 19.096-.415z" fill="#403742"/>
  <path d="m126.423 241.868c-.15-1.013-.061-2.048.259-3.021l.448-1.363c.584-1.778.235-3.677-.732-5.279-.68-1.128-1.008-2.435-.939-3.751l1.232-23.546c.204-3.9-.367-7.802-1.681-11.48l-.517-1.448-19.096.415 12.603 40.605-2.997 14.275c-.154.735-.134 1.511.137 2.212.791 2.045 2.976 2.964 4.891 2.294l4.465-1.563c1.744-.61 2.809-2.372 2.539-4.2z" fill="#f5d3a6"/>
  <path d="m108.534 101.488c.098 1.786.069 3.572-.085 5.345l38.824.197c-.176-1.491-.264-2.994-.262-4.501l-.026-3.601h-38.612z" fill="#deb887"/>
  <path d="m127.769 11.734c-8.554 0-15.489 8.141-15.489 18.182 0 1.286.115 2.619.332 3.964 1.567-8.094 7.788-14.066 15.157-14.066 7.367 0 13.655 5.513 15.225 13.603.171-1.188.264-2.363.264-3.502 0-10.041-6.934-18.181-15.489-18.181z" fill="#704c0f"/>
  <path d="m118.767 15.125c2.538-2.132 5.644-3.391 9.003-3.391 3.378 0 6.501 1.273 9.046 3.428h.007c.144-.651.374-1.386.374-2.081 0-5.207-4.221-9.428-9.428-9.428s-9.428 4.221-9.428 9.428c0 .752.252 1.344.418 2.045h.008z" fill="#704c0f"/>
  <path d="m127.769 19.815c-7.369 0-13.59 5.972-15.157 14.066 1.473 9.16 7.698 18.932 15.157 18.932 7.584 0 13.891-10.104 15.225-19.395-1.569-8.09-7.858-13.603-15.225-13.603z" fill="#f5d3a6"/>
  <g fill="#5e400d">
    <path d="m121.717 13.175c-.156.078-.31.162-.463.246-1.777 3.577-2.084 7.128-2.047 9.383.099-.076.197-.151.298-.224-.015-2.308.347-5.866 2.212-9.405z"/>
    <path d="m122.984 12.622c-.113.043-.225.088-.337.134-.711 3.288-.504 6.259-.208 8.151.095-.04.19-.077.286-.115-.292-1.904-.487-4.883.259-8.17z"/>
    <path d="m133.965 13.251c1.8 2.866 3.894 6.975 4.15 10.873.086.084.175.164.259.251.033-.029.056-.068.054-.116-.204-3.807-2.162-7.82-3.938-10.729-.173-.098-.349-.189-.525-.279z"/>
    <path d="m134.284 21.36c.118.059.23.13.347.193-.009-.046-.017-.09-.026-.136-.65-3.272-3.006-7.218-4.499-9.477-.133-.024-.267-.04-.401-.06 1.449 2.169 3.883 6.165 4.579 9.48z"/>
    <path d="m136.816 15.162h.007c.088-.397.202-.824.283-1.255-2.596-2.306-5.829-3.676-9.336-3.676-3.503 0-6.733 1.367-9.328 3.668.088.408.216.798.317 1.226h.007c2.538-2.132 5.644-3.391 9.003-3.391 3.378 0 6.501 1.273 9.047 3.428z"/>
  </g>
  <path d="m122.36 192.543 4.262 8.284c2.295-3.374 3.25-8.786 5.545-12.16 1.608-2.365 3.283-4.712 4.749-7.159l-16.211-.643-.139 3.584c-.11 2.807.508 5.595 1.794 8.094z" fill="#f0c792"/>
  <path d="m153.925 126.928-4.096-10.014c-1.297-3.17-2.155-6.495-2.556-9.883l-38.824-.197c-.329 3.789-1.228 7.517-2.676 11.056l-4.439 9.277c-1.472 3.599-2.583 9.489-2 13.333.782 5.16 3.721 9.965 6.667 13.5 3.679 4.415 9.308 11.656 12.997 14.825 1.366 1.173 2.099 2.911 1.993 4.709l-.285 7.331 16.211.643c2.227-3.717 3.968-7.665 4.231-12.267.132-2.308-.194-4.552-.775-6.744 3.497-2.893 7.265-7.593 9.128-9.829 2.946-3.535 5.004-9.209 5.786-14.37.582-3.846.11-7.771-1.362-11.37z" fill="#514654"/>
  <path d="m140.372 162.496c-.885-3.34-2.361-6.56-3.712-9.708-1.119-2.608-2.262-5.237-3.613-7.743l.027.031s-1.073-11.076 3.927-13.076l-8.929 2.071-7.072-3.071.054.109c1.369 2.774 2.988 5.412 4.731 7.968 4.502 6.603 10.858 22.108 10.858 30.78 0 5.162 1.182 7.223 2.508 7.375 1.083-2.476 1.831-5.106 1.996-7.993.132-2.307-.194-4.551-.775-6.743z" fill="#403742"/>
  <path d="m152.8 58.507c-1.775-.335-3.607.123-5.017 1.252l-16.446 14.657 2.576 16.594c5.131-4.377 15.105-13.691 19.512-17.334 2.634-2.178 4.233-5.361 4.407-8.774.157-3.091-1.992-5.822-5.032-6.395z" fill="#f5d3a6"/>
  <path d="m128 38.333-4.003 2.135c-.619.33-1.019.96-1.056 1.66l-.941 17.872 3.78 5.292 3.149-4.721z" fill="#f0c792"/>
  <path d="m133.761 80.381-1.424-12.738-7.216 2.786-1.121 14.571-5.964-6.729-11.43-17.726c-.808-1.615-2.281-2.797-4.033-3.235l-.004-.001c-3.001-.75-6.094.833-7.241 3.705-1.269 3.174-1.148 6.734.334 9.813 1.412 2.934 17.134 26.253 22.408 31.045l5.256 4.776c1.399 1.271 3.222 1.976 5.113 1.976 1.965 0 3.773-1.072 4.717-2.795l.517-.944c.545-.994.86-2.098.923-3.23l.258-4.654c.309-5.563-.058-11.144-1.093-16.62z" fill="#f0c792"/>
  <path d="m128 61v-22.667l3.811 1.27c.727.242 1.251.871 1.35 1.631.623 4.776 2.839 21.764 2.839 21.766l-9.849 24.624c-1.327 3.317-4.351 5.651-7.896 6.095-1.335.167-2.619-.57-3.149-1.806-1.325-3.092-1.116-6.627.565-9.541z" fill="#f5d3a6"/>
</svg>
