<?xml version="1.0"?>
<svg xmlns="http://www.w3.org/2000/svg" id="Layer_1_1_" height="512" viewBox="0 0 256 256" width="512">
  <path d="m151.311 97.426-3.36 5.323c-6.082-2.132-13.522-4.752-15.669-5.557-3.806-1.427-25.689-7.612-25.689-7.612l-9.497-4.397-5.117 13.809 10.333 4.383s23.548 17.602 34.252 22.835 20.383 9.039 20.383 9.039l2.927 48.927-.948 4.832 14.761 1.294.935-7.553 7.612-48.074 1.256-8.207 1.601-10.459 1.424-9.302z" fill="#514654"/>
  <path d="m147.951 102.749 10.018 3.957-2.827-2.917c-1.44-1.485-1.732-3.74-.718-5.543h-.001l-3.111-.82z" fill="#403742"/>
  <path d="m151.26 129.534-25.125-9.462c3.922 2.536 7.619 4.766 10.429 6.139 10.704 5.233 20.383 9.039 20.383 9.039l-.062-11.464-1.821 4.147c-.641 1.459-2.312 2.163-3.804 1.601z" fill="#403742"/>
  <path d="m185.462 113.583c-.356-.049-.717-.083-1.087-.083-4.527 0-8.196 3.813-8.196 8.518 0 4.176 2.894 7.644 6.711 8.371l.6-3.921 1.601-10.459z" fill="#403742"/>
  <path d="m156.985 52.229c-3.888-.858-12.963-.945-13.523-.945-.714 0-30.208-2.617-30.208-2.617l-13.32-4.043-25.451-4.281-10.466-4.995-4.93 2.406 1.35 3.678 5.007 5.334 9.752 1.427 18.791 6.66 17.364 1.637 16.412 6.212 23.21 4.598 7.431-14.559c-.45-.223-.923-.402-1.419-.512z" fill="#f5d3a6"/>
  <path d="m149.071 58.107c-5.347.972-19.647 1.449-29.051 1.664l7.742 2.93 23.21 4.598 6.996-13.705c-1.51 1.626-4.253 3.669-8.897 4.513z" fill="#f0c792"/>
  <path d="m156.567 201.034c-.331 1.49-.484 3.015-.455 4.541l.432 22.916-3.33 12.369-1.352 8.112c-.288 1.73 1.046 3.306 2.8 3.306 0 0 5.333-.032 5.571-.096l3.582-.955c1.68-.448 2.566-2.288 1.869-3.881l-2.005-4.583-1.427-6.185 9.052-29.418c.308-1 .534-2.025.675-3.062l1.707-13.795-14.761-1.294z" fill="#f5d3a6"/>
  <path d="m152.013 95.812-.701 1.614 35.203 9.28c.374-3.378.637-7.871.819-12.084l-33.52-6.396c-.278 2.579-.869 5.13-1.801 7.586z" fill="#f5d3a6"/>
  <path d="m153.814 88.225c-.278 2.58-.869 5.131-1.801 7.587l-.701 1.614 3.112.82c.616-.771 1.147-1.646 1.506-2.639.59-1.633.895-4.015.948-6.798z" fill="#f0c792"/>
  <path d="m200.607 66.855c-.824-1.692-1.973-3.206-3.382-4.454l-2.497-2.212c-2.393-2.12-6.777-3.766-9.968-3.962l4.088 16.897 12.177 20.424c-4.519 6.184-10.466 22.597-10.466 22.597l-6.503-.163c-1.833-.046-3.521.988-4.315 2.64l-.564 1.174c-.623 1.298-.611 2.81.033 4.098.942 1.883 3.03 2.901 5.093 2.481l10.536-2.143 17.602-33.063z" fill="#f5d3a6"/>
  <path d="m187.695 68.36 1.152 4.765 12.177 20.423-.953-9.834z" fill="#f0c792"/>
  <path d="m188.009 80.86c1.359-6.334 1.063-12.911-.861-19.097l-.91-2.926c-.719-2.31-2.599-4.129-5.017-4.852l-3.075-.919c-.142-.042-.288-.068-.432-.107l-10.942-1.283c-1.09-.077-2.185-.042-3.266.119l-3.516.523c-2.716.404-4.992 2.169-5.954 4.618l-1.993 5.073c-1.25 3.181-1.426 6.654-.504 9.935l1.327 4.724c1.061 3.779 1.364 7.7.948 11.556l33.52 6.396c.198-4.567.301-8.805.344-10.924.019-.955.13-1.901.331-2.836z" fill="#7f8b4b"/>
  <path d="m172.51 47.585c-2.342 0-4.542-1.091-6.477-2.841v7.499c0 4.156 2.9 7.526 6.477 7.526s6.478-3.37 6.478-7.526v-7.501c-1.935 1.751-4.135 2.843-6.478 2.843z" fill="#f0c792"/>
  <path d="m172.51 15.383c-7.352 0-13.311 6.996-13.311 15.626 0 1.105.099 2.251.285 3.407 1.347-6.956 6.693-12.088 13.026-12.088 6.331 0 11.736 4.738 13.084 11.691.147-1.021.227-2.031.227-3.01 0-8.63-5.959-15.626-13.311-15.626z" fill="#704c0f"/>
  <path d="m164.773 18.298c2.181-1.833 4.851-2.915 7.737-2.915 2.903 0 5.587 1.094 7.775 2.946h.006c.124-.56.322-1.191.322-1.789 0-4.475-3.628-8.103-8.103-8.103s-8.103 3.628-8.103 8.103c0 .646.216 1.155.359 1.757h.007z" fill="#704c0f"/>
  <path d="m172.51 22.328c-6.333 0-11.679 5.132-13.026 12.088 1.266 7.872 6.616 16.271 13.026 16.271 6.518 0 11.938-8.684 13.084-16.668-1.348-6.953-6.752-11.691-13.084-11.691z" fill="#f5d3a6"/>
  <g fill="#5e400d">
    <path d="m167.308 16.622c-.134.067-.266.139-.398.211-1.527 3.074-1.791 6.126-1.759 8.064.085-.065.17-.13.256-.193-.012-1.983.299-5.041 1.901-8.082z"/>
    <path d="m168.398 16.147c-.097.037-.193.075-.289.115-.611 2.826-.433 5.379-.179 7.005.081-.035.164-.067.246-.099-.252-1.636-.419-4.197.222-7.021z"/>
    <path d="m177.835 16.687c1.547 2.463 3.346 5.994 3.566 9.344.074.072.15.141.223.216.028-.025.048-.059.046-.1-.175-3.272-1.858-6.72-3.384-9.221-.149-.084-.3-.161-.451-.239z"/>
    <path d="m178.109 23.656c.102.051.198.112.298.166-.008-.039-.014-.077-.022-.117-.559-2.812-2.584-6.203-3.867-8.145-.114-.02-.229-.035-.344-.051 1.245 1.863 3.336 5.298 3.935 8.147z"/>
    <path d="m180.285 18.329h.006c.075-.341.174-.709.243-1.079-2.231-1.982-5.01-3.159-8.024-3.159-3.01 0-5.787 1.174-8.016 3.152.076.351.186.686.273 1.054h.006c2.181-1.833 4.851-2.915 7.737-2.915 2.903.001 5.587 1.095 7.775 2.947z"/>
  </g>
  <path d="m156.877 88.81c.111-5.802-.887-13.367-2.77-19.667-1.58-5.286-.466-10.361.794-13.768-.348.481-.645 1.001-.865 1.562l-1.993 5.073c-1.25 3.181-1.426 6.654-.504 9.935l1.327 4.724c1.061 3.779 1.364 7.7.948 11.556z" fill="#727d43"/>
  <path d="m61.071 36.785-1.986.969 1.35 3.678 5.007 5.334 9.752 1.427 1.411.5s-9.071-4.621-11.642-6.55c-1.192-.895-2.659-3.173-3.892-5.358z" fill="#f0c792"/>
  <path d="m83.988 79.115c-2.049-.949-3.982-2.13-5.762-3.52l-12.545-9.801-7.374-9.514 1.042-12.211c-.059-.563.081-1.129.395-1.599l.692-1.037c.685-1.027.49-2.404-.452-3.201-.847-.717-2.071-.768-2.975-.126l-3.097 2.2c-2.764 1.964-4.405 5.144-4.405 8.534 0 2.728-1.322 5.286-3.546 6.865l-.397.281c-1.951 1.385-2.544 4.018-1.375 6.106l.346.618c.595 1.063 1.581 1.852 2.748 2.199l4.039.464c2.35.271 4.513 1.415 6.058 3.207l13.936 16.157c4.899 5.689 11.042 10.173 17.953 13.105l2.71 1.15 5.117-13.809z" fill="#f5d3a6"/>
</svg>
