<?xml version="1.0"?>
<svg xmlns="http://www.w3.org/2000/svg" id="Layer_1_1_" height="512" viewBox="0 0 256 256" width="512">
  <path d="m99.953 145.611 31.144 58.508c1.404 2.638.196 5.91-2.585 7.003l-31.663 12.439c-1.551.609-2.571 2.106-2.571 3.772 0 2.309 1.927 4.152 4.234 4.049l57.399-2.57c3.292-.147 6.22-2.135 7.572-5.14 1.399-3.109.861-6.748-1.378-9.318l-5.882-6.754c-2.6-2.986-4.546-6.484-5.71-10.268l-8.008-26.027-14.393-20.292z" fill="#f0c792"/>
  <path d="m111.123 64.616-21.297 10.236 16.135 15.287 20.082-17.88z" fill="#f0c792"/>
  <path d="m183.5 119-17.939-25.672c-7.135-10.211-17.703-17.517-29.775-20.586-6.856-1.743-14.131-.453-19.97 3.542-6.42 4.392-13.146 10.479-13.673 17.716 0 0 39 62.143 45 66.857.496.389 1.118.801 1.825 1.225 17.406-4.772 42.335-16.593 48.036-19.345-6.667-12.31-13.504-23.737-13.504-23.737z" fill="#7f8b4b"/>
  <path d="m207.496 164.04c-2.337-5.79-6.383-13.714-10.493-21.303-5.701 2.753-30.63 14.573-48.036 19.345 7.851 4.712 27.318 11.203 27.318 11.203z" fill="#f5d3a6"/>
  <path d="m118.733 110.988c-6.271-9.845-3.723-22.95 5.89-29.572.064-.044.128-.088.193-.132 5.839-3.995 13.113-5.285 19.97-3.542 2.698.686 5.315 1.595 7.841 2.689-5.069-3.523-10.764-6.144-16.841-7.689-6.856-1.743-14.131-.453-19.97 3.542-6.42 4.392-13.146 10.479-13.673 17.716 0 0 39 62.143 45 66.857.496.389 1.118.801 1.825 1.225 1.03-.282 2.088-.591 3.165-.92-7.938-10.515-23.906-35.27-33.4-50.174z" fill="#727d43"/>
  <path d="m137.146 89.923c-4.102-4.272-10.198-5.985-15.924-4.472-10.849 2.866-19.731 10.644-24.004 21.02l-3.718 9.029-11.5 37.5-.185.439-1.815-15.298 6.851-15.157c1.061-1.597 1.48-3.535 1.175-5.427l-1.619-10.034c-.234-1.454-1.489-2.522-2.962-2.522h-4.945v-9.659c0-.854-.364-1.667-1-2.236l-6.052-5.415c-1.315-1.176-3.355-.97-4.408.446l-6.448 8.671c-.384.517-.592 1.145-.592 1.789v22.505c0 1.906.44 3.786 1.286 5.495l5.714 11.544s-3 28.391-.5 34.875 8 19.984 11.5 21.484c1.167.5 3-.056 4.926-1.019 4.863-2.431 8.54-6.723 10.452-11.813l4.832-12.866 20.074-41.003 16.347-11.625c3.739-2.659 6.184-6.77 6.736-11.324l.203-1.675c.588-4.857-1.036-9.722-4.424-13.252z" fill="#f5d3a6"/>
  <path d="m113.088 15.322 9.376 23.824c4.977.601 9.892-2.184 13.066-6.516 4.68-6.387 3.297-15.36-3.091-20.04-6.101-4.471-14.526-2.939-19.351 2.732z" fill="#704c0f"/>
  <path d="m130.658 29.083c-.01.014-.021.028-.031.042-1.277 1.731-4.003 1.16-4.616-.902-1.635-5.497-4.558-10.556-8.462-13.928-.578-.5-1.187-.965-1.808-1.415-.962.7-1.86 1.509-2.653 2.441l9.376 23.824c.533.064 1.063.074 1.591.06.214-.005.427-.019.64-.036.28-.024.558-.06.836-.103.663-.098 1.316-.245 1.96-.449l.012-.003c3.106-.991 5.942-3.141 8.024-5.981 3.108-4.238 3.456-9.956 1.205-14.705-1.707-3.603-4.195-5.655-6.914-6.831 4.39 4.943 4.906 12.438.84 17.986z" fill="#5e400d"/>
  <path d="m68.503 21.712c-2.364 6.582-2.366 14.412-2.366 14.412l-6.445 8.748 5.541 5.175s-1.086 8.435.376 12.491c1.668 4.626 7.981 9.182 11.961 11.573 3.232 1.941 6.744 2.521 10.312 2.324 4.619-.255 9.334-1.812 13.658-3.401 4.608-1.694 8.122-6.198 10.944-10.001.919-1.239 1.813-2.54 2.673-3.88-4.537-9.998-46.653-37.441-46.654-37.441z" fill="#f5d3a6"/>
  <path d="m84.962 7.762c-5.954 1.012-12.533 5.829-15.294 11.232-.441.863-.827 1.777-1.164 2.717.001 0 42.116 27.443 46.655 37.441 2.329-3.63 4.382-7.567 5.824-11.489 3.841-10.447-.045-25.581-8.472-32.861-7.297-6.301-18.244-8.621-27.549-7.04z" fill="#704c0f"/>
  <g fill="#5e400d">
    <path d="m94.064 15.57c-7.217 1.842-12.887 7.241-16.722 12.079.458.314.924.634 1.406.966 3.684-4.615 9.064-9.725 15.729-11.427 6.239-1.594 13.745-1.271 19.95-.483-.613-.674-1.245-1.321-1.918-1.902-.012-.011-.025-.02-.037-.03-5.873-.602-12.599-.687-18.408.797z"/>
    <path d="m107.715 35.658c-3.346 2.636-7.472 4.418-11.411 5.636.547.418 1.088.837 1.628 1.256 3.741-1.257 7.59-3.035 10.817-5.578 4.071-3.207 8.131-7.04 11.487-10.421-.211-.572-.436-1.135-.675-1.691-3.408 3.459-7.627 7.475-11.846 10.798z"/>
    <path d="m121.215 29.596c-1.821 4.241-4.209 9.055-6.929 12.68-2.189 2.917-5.267 5.158-8.301 6.837.46.399.901.791 1.337 1.182 3.024-1.741 6.062-4.033 8.301-7.016 2.394-3.19 4.512-7.195 6.23-10.965-.173-.914-.394-1.819-.638-2.718z"/>
  </g>
  <path d="m91.429 132.786c2.501-9.69 9.757-28.521 15.127-39.458-4.016 3.571-7.237 8.04-9.338 13.143l-3.718 9.029-11.5 37.5 2.143 12.143s3.857-19.072 7.286-32.357z" fill="#f0c792"/>
  <path d="m208.814 167.655c-.336-1.073-.782-2.288-1.318-3.615h-43.474c-.174-.179-.348-.366-.522-.54-10.086-10.086-36.776-29.614-46.707-36.779-2.467-1.78-5.381-2.826-8.416-3.026l-3.066-.203c-5.217-.344-10.28 1.847-13.6 5.885-2.699 3.283-4.001 7.494-3.628 11.727.605 6.86 2.585 13.527 5.821 19.606l1.772 3.328 28.157 5.401 14.393 20.292s13.775 26.767 24.275 33.767 24 8.5 28.5 8 13.5-4.5 20-16.5 1.999-33.998-2.187-47.343z" fill="#514654"/>
  <path d="m159.571 208.166c-21-15.263-39.336-53.309-39.336-53.309l3.596 14.583 14.393 20.292s13.775 26.767 24.275 33.767 24 8.5 28.5 8c3.434-.382 9.487-2.815 15.051-9.273-12.021 1.284-29.248-1.537-46.479-14.06z" fill="#403742"/>
  <path d="m95.675 164.04 31.144 58.508c1.404 2.638.196 5.91-2.585 7.003l-31.663 12.439c-1.551.609-2.571 2.106-2.571 3.772 0 2.309 1.927 4.152 4.234 4.049l57.399-2.57c3.292-.147 6.22-2.135 7.572-5.14 1.399-3.109.861-6.748-1.378-9.318l-5.882-6.754c-2.6-2.986-4.546-6.484-5.71-10.268l-8.008-26.027-14.393-20.292z" fill="#f5d3a6"/>
  <path d="m183.933 164.04h-19.911l19.121 17.388z" fill="#403742"/>
</svg>
