<?xml version="1.0"?>
<svg xmlns="http://www.w3.org/2000/svg" id="Layer_1_1_" height="512" viewBox="0 0 256 256" width="512">
  <path d="m84.919 140.909-6.481-7.201-15.243-16.936-1.603-1.781c-2.324-2.583-5.464-4.291-8.895-4.84l-15.176-2.428c-2.949-.472-5.971-.064-8.689 1.171-4.306 1.957-7.456 5.808-8.519 10.418-.864 3.743-.864 7.633 0 11.376 1.083 4.693 3.934 8.788 7.959 11.433l24.252 15.937c2.918 1.917 5.445 4.368 7.461 7.218z" fill="#7f8b4b"/>
  <path d="m38.249 100.235-14.249-3.463v15.635l18.357-1.478z" fill="#f0c792"/>
  <path d="m248.47 102.976c-1.406-1.125-3.433-1.013-4.707.261l-1.352 1.352c-2.225 2.225-5.058 3.741-8.143 4.358l-20.268 4.053-61.611-8.107-3.532 24.035 20.474.564 39.669-4.492 5.864 4.105c2.333 1.633 5.53 1.192 7.334-1.012l4.242-5.185c1.024-1.252 2.343-2.229 3.839-2.845l10.226-4.211c2.93-1.207 5.434-3.259 7.192-5.896l1.506-2.259c1.017-1.526.698-3.576-.733-4.721z" fill="#f5d3a6"/>
  <path d="m247.697 105.955c-1.758 2.637-4.262 4.689-7.192 5.896l-10.226 4.211c-1.496.616-2.815 1.594-3.839 2.845l-4.242 5.185c-1.803 2.204-5.001 2.645-7.334 1.012l-5.864-4.104-27.826 3.151c-6.883.779-13.357-3.415-15.458-10.015-.93-2.92-2.76-5.471-5.229-7.287l-1.474-1.084-6.624-.872-3.532 24.035 20.474.564 39.669-4.492 5.864 4.105c2.333 1.633 5.53 1.192 7.334-1.012l4.242-5.185c1.024-1.252 2.343-2.229 3.839-2.845l10.226-4.211c2.93-1.207 5.434-3.259 7.192-5.896l1.506-2.259c.818-1.227.759-2.785-.035-3.947z" fill="#f0c792"/>
  <path d="m143.066 103.667c-3.182-.419-6.371.715-8.575 3.048l-12.811 14.381-10.306 12.392-17.374 17.512-22.745 29.667 2.801 3.545c4.415 5.588 11.016 9.014 18.126 9.409l2.861.159c2.621.146 5.248-.125 7.784-.801h.001c7.083-1.889 12.971-6.807 16.091-13.441l21.486-45.685 8.451-4.925 3.532-24.035z" fill="#514654"/>
  <path d="m21.391 59.728-7.712 15.052c-3.31.072-6.361-2.079-8.166-5.132-2.662-4.503-1.169-10.311 3.334-12.973 4.302-2.543 9.741-.989 12.544 3.053z" fill="#704c0f"/>
  <path d="m8.946 67.632c.006.01.012.02.018.03.727 1.221 2.556 1.023 3.093-.293 1.432-3.507 3.682-6.643 6.468-8.606.413-.291.843-.557 1.281-.812.587.523 1.124 1.113 1.585 1.777l-7.712 15.052c-.354.008-.704-.02-1.05-.064-.141-.017-.279-.041-.419-.065-.183-.034-.363-.076-.543-.122-.429-.108-.849-.246-1.259-.423-.003-.001-.005-.002-.008-.003-1.977-.853-3.702-2.451-4.886-4.453-1.767-2.988-1.625-6.769.163-9.745 1.356-2.257 3.125-3.445 4.989-4.041-3.206 2.963-4.031 7.857-1.72 11.768z" fill="#5e400d"/>
  <path d="m50.284 66.825c1.126 4.48.619 9.628.619 9.628l3.668 6.169-3.979 3.042s.166 5.616-1.059 8.187c-1.397 2.933-5.843 5.518-8.615 6.831-2.251 1.066-4.597 1.219-6.93.857-3.02-.468-6.018-1.797-8.757-3.123-2.919-1.413-4.936-4.602-6.544-7.285-.524-.874-1.027-1.787-1.505-2.724 3.633-6.279 33.101-21.582 33.102-21.582z" fill="#f5d3a6"/>
  <path d="m40.371 56.586c3.848 1.052 7.86 4.647 9.324 8.377.234.596.428 1.222.589 1.862 0 0-29.469 15.303-33.102 21.581-1.295-2.537-2.389-5.259-3.082-7.931-1.846-7.117 1.692-16.813 7.705-21.051 5.205-3.669 12.552-4.482 18.566-2.838z" fill="#704c0f"/>
  <g fill="#5e400d">
    <path d="m33.88 61.127c4.624 1.68 8.001 5.597 10.207 9.027-.322.177-.648.357-.987.544-2.122-3.273-5.327-6.982-9.597-8.534-3.998-1.453-8.953-1.729-13.083-1.614.447-.403.904-.787 1.384-1.126.009-.006.018-.011.026-.017 3.901-.014 8.328.367 12.05 1.72z"/>
    <path d="m23.601 73.445c2.028 1.95 4.625 3.39 7.135 4.446-.387.239-.77.48-1.152.72-2.377-1.07-4.792-2.489-6.748-4.37-2.467-2.373-4.887-5.156-6.874-7.597.176-.362.36-.718.554-1.068 2.015 2.496 4.528 5.41 7.085 7.869z"/>
    <path d="m15.121 68.582c.921 2.906 2.179 6.226 3.731 8.786 1.249 2.06 3.127 3.733 5.012 5.034-.328.232-.644.462-.956.69-1.875-1.341-3.723-3.045-5.001-5.152-1.366-2.253-2.498-5.023-3.383-7.613.174-.589.378-1.17.597-1.745z"/>
  </g>
  <path d="m79.892 135.324-1.454-1.616-14.351-15.945-31.85-2.056c-4.778-.473-9.256 2.688-10.559 7.453-1.744 6.377 2.875 12.577 9.314 12.502z" fill="#727d43"/>
  <path d="m150.831 104.688-2.974 20.24-8.451 4.925-21.486 45.685c-3.12 6.633-9.008 11.552-16.091 13.441h-.001c-2.536.676-5.164.947-7.784.801l-2.861-.159c-3.853-.214-9.122-.709-13.849-2 4.122 3.553 9.329 5.693 14.849 6l2.861.159c2.621.146 5.248-.125 7.784-.801h.001c7.083-1.889 12.971-6.807 16.091-13.441l21.486-45.685 8.451-4.925 3.532-24.035z" fill="#403742"/>
  <path d="m154.856 124.3 10.178.911c2.81.252 4.78 2.888 4.224 5.654l-.08.396c-.39 1.94-1.945 3.434-3.899 3.746l-10.996 1.754c-1.861.297-3.766.166-5.569-.382l-11.143-3.387-41.459.785-62.544-.239c-6.232.005-10.767-5.911-9.144-11.927 1.213-4.496 5.516-7.441 10.146-6.945l60.116 4.426 44.503 3.305 14.298-7.187c.898-.523 1.987-.605 2.953-.221 2.058.818 2.788 3.361 1.477 5.146z" fill="#f5d3a6"/>
  <path d="m54.954 155.796-26.046-17.116c-4.323-2.841-7.384-7.239-8.548-12.279-.283-1.228-.469-2.471-.58-3.719-.246 2.674-.075 5.376.532 8.006 1.083 4.693 3.934 8.788 7.959 11.433l24.252 15.937c2.918 1.917 5.445 4.368 7.461 7.218l2.458-2.402c-2.076-2.766-4.592-5.175-7.488-7.078z" fill="#727d43"/>
  <path d="m84.919 140.909-24.933 24.367c.027.039.059.073.086.112l10.928 15.612 23-30z" fill="#f5d3a6"/>
  <path d="m85.487 141.541-.568-.631-24.933 24.367c.027.039.059.073.086.112l10.928 15.611 2.185-2.85-6.213-8.804c-2.33-3.302-1.921-7.807.967-10.634 6.645-6.506 17.548-17.171 17.548-17.171z" fill="#f0c792"/>
</svg>
