<?xml version="1.0"?>
<svg xmlns="http://www.w3.org/2000/svg" id="Layer_1_1_" height="512" viewBox="0 0 256 256" width="512">
  <path d="m111 131 4.431-6.817 6.641 5.595 22.614 12.834c.617.067 1.237.121 1.86.145 3.047.117 5.953-.258 7.453-1.758 4-4 3-41 3-41l2-7 2.641-13.947c.224-1.905-.529-3.794-2.003-5.021l-1.333-1.111c-1.442-1.202-3.385-1.612-5.19-1.097-2.435.697-4.114 2.923-4.114 5.456v9.721l-3.646-3.039c-1.202-1.002-3.024-.621-3.724.779-.389.779-.332 1.707.151 2.431l7.219 10.829v.911c0 7.125-1.264 14.171-3.46 20.95-.846 2.611-1.605 5.021-1.393 7.637l-10.517-10.868c-5.298-5.298-11.409-9.733-18.145-13.014-.056-.027-.112-.054-.167-.081-1.423-.688-2.983-1.035-4.563-1.035h-4.755s-6.429 5-5.571 14c.857 9 10.571 14.5 10.571 14.5z" fill="#f5d3a6"/>
  <path d="m64.671 137-7.671 20-23.466 37.546c-.949 1.518-2.636 2.413-4.425 2.347l-22.421-.83c-1-.037-1.855-.73-2.097-1.701-.318-1.273.517-2.546 1.811-2.762l21.598-3.6 5.825-16.893c2.763-8.012 6.881-15.49 12.175-22.107l4.457-23.559c.661-3.494 2.468-7.741 4.752-11.539 2.713-4.512 7.134-7.737 12.242-9.014s7.799 6.758 8.12 14.935c.322 8.177-10.9 17.177-10.9 17.177z" fill="#f5d3a6"/>
  <path d="m80 90.251v13.511l14-.588v-13.528z" fill="#f0c792"/>
  <path d="m68.711 64.043c-.159 3.36.343 6.338.343 6.338l-3.054 6.051 3.946 2.607c.191 4.825 1.233 8.693 5.578 11.34 3.383 2.06 7.065 2.621 11.114 2.621 2.098 0 4-.292 5.731-.802-10.137-2.706-21.375-18.299-23.658-28.155z" fill="#f5d3a6"/>
  <path d="m104.354 79.233-3.458-21.47c-1.484-2.143-3.328-3.979-5.537-5.318-5.143-3.118-12.117-3.406-17.676-1.466-3.557 1.241-7.102 4.889-8.239 8.499-.453 1.439-.661 3.041-.733 4.565 2.283 9.856 13.521 25.449 23.658 28.155 6.412-1.888 10.346-6.955 11.985-12.965z" fill="#704c0f"/>
  <path d="m111 131c-5.296-5.066-7.318-20.667-5.238-27.695l.238-.805-13.518-1.431c-.655-.046-1.311-.069-1.967-.069h-4.036c-2.311 0-4.613.283-6.855.844l-12.173 3.043 1.46 5.159c2.595 9.172 1.046 19.021-4.24 26.954l.89 26.787c4.456-.623 9.737-1.24 14.874-1.552 8.788-.533 19.45-7.526 24.998-11.721.063-.664.149-1.327.285-1.983z" fill="#7f8b4b"/>
  <path d="m90.451 175.845c-1.255.526-2.555.94-3.883 1.239 1.329-.299 2.628-.714 3.883-1.239z" fill="#7f8b4b"/>
  <g fill="#5e400d">
    <path d="m100.896 57.764c-1.124-1.623-2.456-3.067-3.995-4.256l2.281 14.16c1.442 8.955-3.474 17.942-12.016 20.992-.363.13-.733.25-1.11.361-.018-.005-.036-.012-.055-.017 2.111 1.507 4.263 2.632 6.369 3.194 6.412-1.889 10.346-6.956 11.985-12.965z"/>
    <path d="m102.022 64.751c-3.186-1.368-13.952-5.692-22.039-5.43-4.262.146-8.177 2.089-11.237 4.223-.011.166-.027.334-.035.499.051.219.111.444.171.668 3.013-2.18 6.931-4.246 11.135-4.39 8.397-.289 20.166 4.712 22.193 5.604z"/>
    <path d="m75.051 77.347c.211.311.427.619.646.927 1.911-.255 3.782-.65 5.362-1.273 6.042-2.386 18.688-7.728 18.815-7.781.254-.107.373-.401.266-.655-.107-.255-.401-.373-.655-.267-.127.054-12.761 5.392-18.792 7.773-1.632.643-3.618 1.039-5.642 1.276z"/>
    <path d="m79.044 82.538c.251.289.505.574.762.856 2.497-.557 5.129-1.239 7.499-2.045 7.573-2.578 13.441-8.233 13.688-8.473.198-.192.202-.509.01-.707-.192-.197-.509-.203-.707-.01-.059.057-5.959 5.739-13.313 8.242-2.507.854-5.315 1.566-7.939 2.137z"/>
  </g>
  <circle cx="101" cy="68.758" fill="#704c0f" r="11"/>
  <path d="m90 68.758c0-6.075 4.925-11 11-11s-5.823 5.149-5.823 11.224 11.898 10.776 5.823 10.776-11-4.925-11-11z" fill="#5e400d"/>
  <path d="m138.961 126.99c-.911-1.656-2.281-3.06-4.017-3.806-2.931-1.261-6.168-.723-8.479 1.174l-5.559 4.439 1.166.983 22.615 12.834c.617.067 1.237.122 1.86.146 1.479.057 2.922-.006 4.19-.253z" fill="#f0c792"/>
  <path d="m107 164-6.894 5.362 17.264 1.455 11.207-17.111c.56 1.468 1.211 3.051 1.935 4.655 1.488-5.371 12.044-19.624 12.045-19.624l-5.454-9.916c-1.296-2.357-3.773-3.821-6.463-3.821-1.706 0-3.36.592-4.679 1.674l-17.982 14.357-2.26 7.501c-.136.656-.222 1.318-.285 1.983-.003.002-.006.004-.009.007-.163 1.655-.116 3.327.158 4.973z" fill="#514654"/>
  <path d="m107 164 2.301 1.192c2.959 1.532 6.001 2.88 9.106 4.041l3.984-6.083c-5.519-2.06-11.341-4.78-13.391-7.65-2.433-3.406-.239-11.021 2.112-16.972l-3.134 2.502-2.26 7.501c-.136.656-.222 1.318-.285 1.983-.003.002-.006.004-.009.007-.163 1.655-.116 3.327.158 4.973z" fill="#403742"/>
  <path d="m80.435 162.235c-5.137.312-10.418.929-14.874 1.552l1.384 13.254 13.507.587c5.519.24 10.943-1.49 15.303-4.882l11.245-8.746-1.418-8.506c-.283-1.7-.329-3.428-.146-5.136-5.488 4.175-16.106 11.338-25.001 11.877z" fill="#f5d3a6"/>
  <path d="m171.961 177.48c-3.033-1.517-6.308-2.486-9.673-2.866l-15.357-.112c-13.102-.095-25.995-3.286-37.629-9.311l-2.302-1.191-11.246 8.747c-4.36 3.391-9.784 5.122-15.303 4.882l-13.507-.587s.056 13.958 4.056 18.958 35 5 35 5l51.237-2.726 18.621-1.133 1.099-17.723c-1.718-.49-3.391-1.135-4.996-1.938z" fill="#514654"/>
  <path d="m250.817 176.965-2.5-14.168c-.183-1.039-1.087-1.797-2.142-1.797-1.201 0-2.175.974-2.175 2.175v10.07c0 1.084-.585 2.083-1.529 2.615l-13.675 7.692c-.519.292-1.112.423-1.705.376l-44.474-3.488c-1.921-.151-3.816-.497-5.66-1.022l-1.099 17.723 14.642-.891 36.128-2.227c.247-.015.495 0 .737.046l12.856 2.41c1.56.293 3.078-.681 3.463-2.221l1.221-4.886c.062-.247.155-.485.277-.709l5.313-9.74c.328-.598.441-1.288.322-1.958z" fill="#f5d3a6"/>
  <path d="m106 201 46.082-2.452c-4.811-8.809-58.832-2.12-71.046-5.977-6.504-2.054-9.089-8.209-10.181-15.36l-3.91-.17c-.001.001.055 13.959 4.055 18.959s35 5 35 5z" fill="#403742"/>
  <path d="m69.958 163.215c-1.525.184-3.004.377-4.397.572l1.384 13.254 3.91.17c-.692-4.53-.786-9.457-.897-13.996z" fill="#f0c792"/>
  <path d="m69.786 158.178c-.643-12.214 2.893-14.143 4.179-32.464.767-10.936-.87-17.976-2.315-21.877l-4.198 1.05 1.46 5.159c2.595 9.172 1.046 19.021-4.24 26.954l.89 26.787c1.393-.195 2.872-.388 4.397-.572-.044-1.752-.09-3.446-.173-5.037z" fill="#727d43"/>
  <path d="m176.542 184.72-.684 12.421 14.642-.891 8.622-.531z" fill="#f0c792"/>
  <path d="m175.858 197.141.77-12.421-3.632-1.788c-.966-.354-1.761-.916-2.282-1.611l-4.98-6.077c-1.136-.271-2.282-.498-3.446-.629l-15.357-.112c-9.536-.069-18.96-1.787-27.871-5.035 10.296 9.135 26.472 20.625 31.21 23.948.874.613 1.434 1.425 1.593 2.304l.511 2.813 4.862-.259z" fill="#403742"/>
  <path d="m196.239 199.119-27.403-13.701c-.545-.272-.994-.704-1.287-1.238l-24.994-45.443s-10.556 14.253-12.045 19.624c1.016 2.252 2.182 4.547 3.489 6.639 4.367 6.987 17.887 20.076 21.241 23.279.493.471.809 1.094.899 1.77l1.424 10.683c.234 1.753 1.925 2.924 3.648 2.527l9.283-2.142c.334-.077.678-.096 1.018-.057l23.346 2.694c1.224.141 2.364-.647 2.662-1.843.282-1.117-.252-2.277-1.281-2.792z" fill="#f5d3a6"/>
</svg>
