<?xml version="1.0"?>
<svg xmlns="http://www.w3.org/2000/svg" id="Layer_1_1_" height="512" viewBox="0 0 256 256" width="512">
  <path d="m175.679 184.53 19.421 5.531 43.054 4.588 7.913-3.641c2.622-1.206 4.554-3.537 5.254-6.337l.312-1.247c.405-1.619.377-3.317-.082-4.922-.858-3.002-3.128-5.397-6.087-6.395-4.025-1.358-10.161-3.217-16.637-4.394-11.203-2.037-29.18-6.118-29.18-6.118" fill="#514654"/>
  <path d="m217.563 177.705c-11.813.241-20.973 2.973-21.857-.964-.729-3.248 7.174-11.137 9.967-13.803-3.609-.794-6.027-1.343-6.027-1.343l-21.093 20.186-.987 3.287 17.534 4.993 2.83.302 25.659-7.514 1.646-2.923 9.282-1.256c.001 0-5.142-1.206-16.954-.965z" fill="#403742"/>
  <path d="m62.82 190.503c-5.977 1.272-29.093 8.958-30.089 9.171-.591.126-2.754-1.977-4.417-3.71-1.244-1.296-3.193-1.613-4.79-.79l-7.579 3.906-9.508 2.023c-1.422.303-2.433 1.567-2.415 3.021.019 1.538 1.18 2.822 2.708 2.994l13.326 1.5s17.146-2.607 19.351-2.035c1.861.483 43.055 3.003 55.476 3.754l-.577-18.866c-11.07-.591-27.374-1.843-31.486-.968z" fill="#f5d3a6"/>
  <path d="m86.399 205.819c-.009 0-.017 0-.025 0-15.062-.923-40.897-2.545-46.091-3.114-.041-.005-.083-.009-.121-.013-.072-.008-.144-.016-.207-.024-.109-.013-.203-.026-.284-.037-.024-.004-.044-.007-.065-.01-.084-.013-.155-.026-.198-.037-2.204-.572-19.351 2.035-19.351 2.035l-13.326-1.5c-.195-.022-.383-.063-.564-.119-.022-.007-.042-.019-.064-.026-.159-.053-.313-.115-.458-.193-.006-.003-.012-.008-.018-.011-.324-.175-.61-.405-.849-.679-.609.7-.908 1.667-.678 2.682.292 1.294 1.452 2.213 2.77 2.362l13.188 1.485s17.146-2.607 19.351-2.035c1.861.483 43.055 3.003 55.476 3.754l-.123-4.008c-2.101-.129-4.992-.305-8.363-.512z" fill="#f0c792"/>
  <path d="m175.867 91.02v12.106l15.277 7.078v-15.344z" fill="#f0c792"/>
  <path d="m170.587 153.797-7.457 5.468c-3.027 2.22-5.64 4.956-7.717 8.083l-4.389 6.607c-2.825 4.252-6.917 7.507-11.696 9.304-7.583 2.834-31.997 7.748-34.812 8.347-1.243.265-5.188.133-10.209-.135l.577 18.866c2.294.139 0 0 0 0l31.446-.405c6.595-.125 13.072-1.774 18.925-4.817l12.269-6.38c8.874-4.615 17.104-10.375 24.479-17.132l13.098-9.663z" fill="#514654"/>
  <path d="m197.785 167.435 3.6-12.832-28.745-4.46z" fill="#f0c792"/>
  <path d="m208.284 120.915c-1.222-2.037-2.944-3.728-5.002-4.913l-22.447-14.723c-1.021-.488-2.137-.741-3.268-.741-3.614 0-6.726 2.551-7.435 6.095l-1.109 5.545c-.156.781-.188 1.582-.095 2.373l3.714 35.592 28.746 4.46 3.533-12.591c.321-1.192.799-2.337 1.421-3.403l2.032-3.484c2.563-4.399 2.529-9.844-.09-14.21z" fill="#7f8b4b"/>
  <path d="m238.154 194.649s-2.538-6.355-3.557-8.265c-1.018-1.91-9.362-6.459-9.362-6.459-4.316.324-8.757 1.082-11.596 2.705l-10.843 5.452-19.8 5.092-6.64-1.66c-.961-.24-1.978-.068-2.806.476-1.674 1.099-2.506 3.11-2.097 5.07l.804 3.854c.965 4.626 4.443 8.32 9.001 9.563l1.984.541c1.153.314 2.381.193 3.45-.342l.454-.227c2.259-1.13 3.276-3.802 2.337-6.148l-.702-1.755 30.878-2.243z" fill="#f5d3a6"/>
  <path d="m172.64 52.158-8.326 16.251c-3.574.077-6.868-2.244-8.816-5.541-2.874-4.862-1.262-11.132 3.6-14.006 4.643-2.745 10.515-1.067 13.542 3.296z" fill="#704c0f"/>
  <path d="m159.204 60.692c.006.011.013.021.019.032.785 1.318 2.759 1.104 3.339-.316 1.546-3.787 3.975-7.172 6.983-9.292.446-.314.91-.602 1.383-.877.633.564 1.214 1.201 1.712 1.919l-8.326 16.251c-.383.008-.76-.022-1.134-.069-.152-.018-.302-.044-.452-.07-.197-.036-.392-.082-.586-.132-.463-.116-.917-.266-1.359-.456-.003-.001-.006-.002-.008-.003-2.135-.921-3.997-2.646-5.275-4.808-1.908-3.226-1.754-7.308.176-10.521 1.464-2.437 3.374-3.719 5.386-4.363-3.463 3.199-4.354 8.482-1.858 12.705z" fill="#5e400d"/>
  <path d="m203.834 59.821c1.216 4.837.668 10.395.668 10.395l3.96 6.661-4.296 3.284s.179 6.063-1.144 8.839c-1.509 3.166-6.308 5.957-9.301 7.375-2.43 1.151-4.963 1.316-7.482.926-3.261-.505-6.497-1.941-9.455-3.372-3.152-1.525-5.33-4.969-7.065-7.866-.565-.944-1.109-1.93-1.625-2.941 3.924-6.778 35.74-23.3 35.74-23.301z" fill="#f5d3a6"/>
  <path d="m193.132 48.766c4.155 1.136 8.486 5.017 10.066 9.045.252.643.462 1.319.636 2.01 0 0-31.817 16.522-35.739 23.3-1.398-2.74-2.579-5.678-3.328-8.562-1.993-7.684 1.827-18.152 8.319-22.728 5.62-3.961 13.553-4.84 20.046-3.065z" fill="#704c0f"/>
  <path d="m186.124 53.669c4.993 1.814 8.638 6.043 11.02 9.746-.347.191-.7.385-1.065.587-2.291-3.534-5.751-7.538-10.362-9.214-4.316-1.569-9.666-1.867-14.126-1.742.482-.436.976-.85 1.494-1.215.009-.007.019-.012.028-.019 4.213-.015 8.992.396 13.011 1.857z" fill="#5e400d"/>
  <path d="m175.026 66.968c2.19 2.105 4.993 3.66 7.703 4.8-.418.259-.831.518-1.243.777-2.567-1.155-5.174-2.687-7.286-4.718-2.664-2.562-5.277-5.567-7.422-8.202.19-.391.389-.775.598-1.153 2.176 2.696 4.889 5.842 7.65 8.496z" fill="#5e400d"/>
  <path d="m165.87 61.718c.995 3.138 2.352 6.722 4.028 9.485 1.349 2.224 3.376 4.03 5.412 5.435-.354.251-.695.499-1.032.745-2.024-1.448-4.02-3.288-5.399-5.562-1.475-2.432-2.697-5.423-3.653-8.219.187-.635.408-1.263.644-1.884z" fill="#5e400d"/>
  <path d="m193.011 153.303-3.403-37.34c-.37-4.055-2.238-7.827-5.239-10.578-3.941-3.613-10.189-2.789-13.06 1.721-1.052 1.653-1.508 3.616-1.291 5.564l4.191 37.715z" fill="#727d43"/>
  <g fill="#403742">
    <path d="m94.935 210.34c.022.001.04.002.061.004-.025-.002-.044-.003-.061-.004z"/>
    <path d="m94.996 210.343c.049.003.11.007.179.011-.056-.003-.116-.007-.179-.011z"/>
    <path d="m94.884 210.337s.021.001.051.003c-.019-.001-.032-.002-.051-.003z"/>
    <path d="m95.175 210.354c.017.001.039.002.055.003-.019-.001-.037-.002-.055-.003z"/>
    <path d="m192.394 169.936-21.807-16.14-3.759 2.757 1.076 9.682c.155 1.391.875 2.657 1.991 3.501l6.35 4.798c2.61 1.972 2.644 5.865.094 7.914-5.848 4.7-12.148 8.819-18.815 12.287l-12.269 6.38c-5.852 3.043-12.329 4.692-18.924 4.817l-29.013.551s-.35-.118-2.558-.251l.125 4.105 31.446-.405c6.595-.125 13.072-1.774 18.925-4.817l12.269-6.38c8.874-4.615 17.104-10.375 24.479-17.132l13.098-9.663z"/>
    <path d="m95.875 210.396c.031.002.029.002 0 0z"/>
    <path d="m95.768 210.39c.048.003.084.005.106.006-.02-.001-.054-.003-.106-.006z"/>
    <path d="m95.666 210.384c.039.002.074.005.102.006-.031-.002-.065-.004-.102-.006z"/>
    <path d="m95.23 210.358c.144.009.305.018.436.026-.104-.006-.243-.015-.436-.026z"/>
  </g>
  <path d="m231.309 194.171-14.924-12.708c-1.013.329-1.947.71-2.745 1.167l-10.843 5.452-1.69.435 16.959 11.902 1.595-.116 14.123-4.318z" fill="#f0c792"/>
  <path d="m167.308 107.107c-1.052 1.653-1.508 3.616-1.291 5.564l5.534 49.807c.155 1.391.875 2.657 1.991 3.501l44.081 33.305 19.35 8.148h7.129l-19.35-15.277-35.136-32.208-4.009-43.984c-.37-4.055-2.238-7.827-5.239-10.578-3.941-3.612-10.189-2.789-13.06 1.722z" fill="#f5d3a6"/>
</svg>
